<?xml version="1.0" standalone="no"?>
<!DOCTYPE svg PUBLIC "-//W3C//DTD SVG 20010904//EN"
 "http://www.w3.org/TR/2001/REC-SVG-20010904/DTD/svg10.dtd">
<svg version="1.0" xmlns="http://www.w3.org/2000/svg"
 width="308.000000pt" height="308.000000pt" viewBox="0 0 308.000000 308.000000"
 preserveAspectRatio="xMidYMid meet">
<metadata>
Created by potrace 1.14, written by Peter Selinger 2001-2017
</metadata>
<g transform="translate(0.000000,308.000000) scale(0.100000,-0.100000)"
fill="#000000" stroke="none">
<path d="M1230 3049 c-47 -11 -95 -21 -107 -24 -76 -17 -278 -104 -373 -161
-160 -95 -336 -254 -452 -409 -118 -157 -230 -407 -269 -600 -6 -27 -13 -63
-17 -80 -14 -64 -5 -447 12 -538 106 -551 519 -1015 1049 -1177 151 -46 188
-50 468 -50 255 0 276 1 367 25 220 56 377 131 557 266 295 221 518 572 582
919 2 14 8 43 13 64 5 21 9 129 10 240 0 177 -2 215 -24 323 -77 374 -279 693
-586 924 -177 133 -422 242 -639 283 -125 24 -476 21 -591 -5z"/>
</g>
</svg>
